<svg xmlns="http://www.w3.org/2000/svg">
    <defs>
    <style type="text/css">
    @import url(&quot;https://fonts.googleapis.com/css2?family=Roboto&quot;);
    text {{ font-family: 'Roboto', sans-serif;
    font-kerning:none;
    font-variant-ligatures:none
    }}
    </style>
    </defs>
<text x="7" y="183" font-size="86" fill="rgb(115, 208, 86)">Ukraine</text><text x="16" y="84" font-size="84" fill="rgb(61, 77, 138)">digital</text><text x="197" y="131" font-size="62" fill="rgb(127, 211, 78)">service</text><text x="240" y="62" font-size="51" fill="rgb(45, 112, 142)">project</text><text x="170" y="15" font-size="19" fill="rgb(61, 188, 116)">digital transformation</text><text x="83" y="131" font-size="18" fill="rgb(149, 216, 64)">initiatives</text><text x="17" y="24" font-size="17" transform="rotate(-90, 17, 24) translate(-75, 0)" fill="rgb(70, 11, 94)">education</text><text x="308" y="148" font-size="17" fill="rgb(47, 180, 124)">State</text><text x="364" y="140" font-size="16" transform="rotate(-90, 364, 140) translate(-58, 0)" fill="rgb(74, 193, 109)">Ministry</text><text x="33" y="114" font-size="16" fill="rgb(86, 198, 103)">Ukrainian</text><text x="307" y="185" font-size="16" fill="rgb(60, 80, 139)">Diia</text><text x="250" y="81" font-size="15" fill="rgb(129, 211, 77)">platform</text><text x="300" y="162" font-size="15" fill="rgb(54, 92, 141)">role</text><text x="110" y="15" font-size="14" fill="rgb(55, 91, 141)">public</text><text x="127" y="97" font-size="14" fill="rgb(71, 42, 122)">enhancing</text><text x="274" y="197" font-size="14" fill="rgb(70, 10, 93)">CDTO</text><text x="25" y="14" font-size="13" fill="rgb(34, 167, 133)">development</text><text x="114" y="197" font-size="13" fill="rgb(184, 222, 41)">international</text><text x="92" y="29" font-size="13" fill="rgb(119, 209, 83)">system</text><text x="10" y="195" font-size="12" fill="rgb(59, 187, 117)">communication</text><text x="254" y="91" font-size="11" fill="rgb(31, 150, 139)">national</text><text x="224" y="198" font-size="11" fill="rgb(64, 189, 114)">within</text><text x="30" y="89" font-size="11" transform="rotate(-90, 30, 89) translate(-66, 0)" fill="rgb(42, 176, 127)">cybersecurity</text><text x="324" y="27" font-size="11" fill="rgb(64, 189, 114)">efficiency</text><text x="334" y="92" font-size="11" fill="rgb(61, 78, 138)">Online</text><text x="277" y="29" font-size="11" fill="rgb(66, 63, 133)">position</text><text x="368" y="163" font-size="11" fill="rgb(124, 210, 80)">Head</text><text x="121" y="110" font-size="11" fill="rgb(57, 86, 140)">infrastructure</text><text x="337" y="71" font-size="10" fill="rgb(46, 110, 142)">government</text><text x="176" y="29" font-size="10" fill="rgb(39, 126, 142)">advancing</text><text x="65" y="30" font-size="10" transform="rotate(-90, 65, 30) translate(-58, 0)" fill="rgb(59, 82, 139)">transparency</text><text x="194" y="94" font-size="10" fill="rgb(32, 146, 140)">educational</text><text x="40" y="98" font-size="10" fill="rgb(33, 142, 141)">leadership</text><text x="32" y="139" font-size="10" fill="rgb(44, 114, 142)">key</text><text x="368" y="11" font-size="10" fill="rgb(202, 225, 31)">cyber</text><text x="298" y="171" font-size="10" fill="rgb(70, 10, 93)">information</text><text x="355" y="80" font-size="10" fill="rgb(168, 219, 52)">City</text><text x="374" y="166" font-size="10" transform="rotate(-90, 374, 166) translate(-13, 0)" fill="rgb(61, 78, 138)">led</text><text x="9" y="102" font-size="10" transform="rotate(-90, 9, 102) translate(-25, 0)" fill="rgb(57, 85, 140)">effort</text><text x="135" y="117" font-size="9" fill="rgb(68, 191, 112)">responsible</text><text x="319" y="80" font-size="9" fill="rgb(61, 77, 138)">policy</text><text x="264" y="170" font-size="9" fill="rgb(64, 69, 136)">First</text><text x="310" y="196" font-size="9" fill="rgb(144, 215, 67)">strategies</text><text x="369" y="196" font-size="9" fill="rgb(165, 219, 54)">include</text><text x="203" y="134" font-size="9" transform="rotate(-90, 203, 134) translate(-63, 0)" fill="rgb(142, 214, 69)">implementation</text><text x="176" y="57" font-size="9" transform="rotate(-90, 176, 57) translate(-18, 0)" fill="rgb(38, 130, 142)">data</text><text x="369" y="145" font-size="9" fill="rgb(41, 123, 142)">region</text><text x="20" y="21" font-size="9" fill="rgb(72, 24, 106)">reform</text><text x="371" y="24" font-size="9" fill="rgb(33, 144, 141)">Center</text><text x="177" y="35" font-size="9" fill="rgb(57, 86, 140)">support</text><text x="182" y="124" font-size="9" transform="rotate(-90, 182, 124) translate(-46, 0)" fill="rgb(72, 193, 110)">partnership</text><text x="149" y="23" font-size="8" fill="rgb(157, 217, 59)">Deputy</text><text x="114" y="34" font-size="8" fill="rgb(46, 110, 142)">years</text><text x="242" y="28" font-size="8" fill="rgb(30, 157, 137)">focusing</text><text x="373" y="186" font-size="8" fill="rgb(32, 147, 140)">leader</text><text x="18" y="35" font-size="8" fill="rgb(149, 216, 64)">sector</text><text x="20" y="26" font-size="8" fill="rgb(71, 16, 99)">across</text><text x="368" y="91" font-size="8" fill="rgb(42, 120, 142)">country</text><text x="325" y="156" font-size="8" fill="rgb(63, 71, 136)">access</text><text x="64" y="128" font-size="8" transform="rotate(-90, 64, 128) translate(-51, 0)" fill="rgb(41, 175, 127)">administrative</text><text x="225" y="41" font-size="8" transform="rotate(-90, 225, 41) translate(-36, 0)" fill="rgb(44, 177, 126)">protection</text><text x="372" y="80" font-size="8" fill="rgb(61, 78, 138)">launch</text><text x="133" y="41" font-size="8" transform="rotate(-90, 133, 41) translate(-35, 0)" fill="rgb(66, 190, 113)">electronic</text><text x="282" y="70" font-size="8" fill="rgb(33, 143, 141)">current</text><text x="79" y="35" font-size="8" fill="rgb(71, 45, 123)">Field</text><text x="374" y="171" font-size="8" fill="rgb(47, 108, 142)">needs</text><text x="275" y="133" font-size="8" fill="rgb(231, 228, 25)">New</text><text x="154" y="55" font-size="8" transform="rotate(-90, 154, 55) translate(-32, 0)" fill="rgb(40, 125, 142)">Business</text><text x="230" y="164" font-size="8" transform="rotate(-90, 230, 164) translate(-23, 0)" fill="rgb(88, 199, 101)">played</text><text x="133" y="146" font-size="8" transform="rotate(-90, 133, 146) translate(-35, 0)" fill="rgb(31, 159, 136)">economic</text><text x="7" y="166" font-size="8" transform="rotate(-90, 7, 166) translate(-29, 0)" fill="rgb(39, 127, 142)">Minister</text><text x="40" y="141" font-size="8" transform="rotate(-90, 40, 141) translate(-29, 0)" fill="rgb(46, 111, 142)">defense</text><text x="334" y="185" font-size="8" fill="rgb(62, 74, 137)">tech</text><text x="2" y="20" font-size="8" fill="rgb(49, 181, 123)">lead</text><text x="337" y="136" font-size="4" fill="rgb(52, 97, 141)">successful projects</text><text x="248" y="189" font-size="4" fill="rgb(72, 37, 118)">Valeriia</text><text x="36" y="70" font-size="4" fill="rgb(115, 208, 86)">team</text><text x="297" y="85" font-size="4" fill="rgb(53, 94, 141)">becoming</text><text x="105" y="102" font-size="4" transform="rotate(-90, 105, 102) translate(-13, 0)" fill="rgb(50, 101, 142)">literacy</text><text x="338" y="117" font-size="4" fill="rgb(44, 177, 126)">promoting</text><text x="84" y="134" font-size="4" fill="rgb(72, 32, 113)">institutions</text><text x="152" y="4" font-size="4" fill="rgb(30, 155, 138)">security</text><text x="162" y="187" font-size="4" fill="rgb(37, 133, 142)">enhance</text><text x="71" y="4" font-size="4" fill="rgb(39, 173, 129)">served</text><text x="329" y="160" font-size="4" fill="rgb(42, 176, 127)">Additionally</text><text x="396" y="93" font-size="4" transform="rotate(-90, 396, 93) translate(-21, 0)" fill="rgb(72, 22, 104)">significantly</text><text x="42" y="118" font-size="4" fill="rgb(42, 176, 127)">instrumental</text><text x="263" y="35" font-size="4" fill="rgb(68, 191, 112)">s</text><text x="285" y="184" font-size="4" fill="rgb(76, 194, 108)">cooperation</text><text x="289" y="95" font-size="4" fill="rgb(33, 144, 141)">Foundation</text><text x="126" y="80" font-size="4" fill="rgb(60, 79, 138)">civil</text><text x="133" y="37" font-size="4" fill="rgb(32, 163, 134)">governance</text><text x="36" y="4" font-size="4" fill="rgb(41, 122, 142)">energy</text><text x="285" y="137" font-size="4" fill="rgb(71, 14, 97)">significant</text><text x="378" y="154" font-size="4" fill="rgb(112, 207, 87)">crucial</text><text x="203" y="194" font-size="4" fill="rgb(40, 124, 142)">University</text><text x="295" y="32" font-size="4" fill="rgb(42, 118, 142)">integrating</text><text x="71" y="19" font-size="4" fill="rgb(236, 229, 27)">environmental</text><text x="261" y="94" font-size="4" fill="rgb(34, 168, 132)">Cabinet</text><text x="131" y="184" font-size="4" fill="rgb(30, 156, 137)">aimed</text><text x="182" y="115" font-size="4" fill="rgb(58, 83, 139)">held</text><text x="308" y="18" font-size="4" fill="rgb(139, 214, 70)">registration</text><text x="352" y="32" font-size="4" fill="rgb(31, 162, 135)">Department</text><text x="6" y="7" font-size="4" fill="rgb(72, 24, 106)">Launched</text><text x="262" y="18" font-size="4" fill="rgb(72, 193, 110)">ensuring</text><text x="106" y="105" font-size="4" fill="rgb(63, 188, 115)">worked</text><text x="115" y="19" font-size="4" fill="rgb(72, 22, 104)">technology</text><text x="282" y="42" font-size="4" transform="rotate(-90, 282, 42) translate(-17, 0)" fill="rgb(63, 71, 136)">Statistics</text><text x="295" y="151" font-size="4" fill="rgb(231, 228, 25)">innovation</text><text x="238" y="135" font-size="4" fill="rgb(53, 94, 141)">companies</text><text x="351" y="95" font-size="4" fill="rgb(115, 208, 86)">managing</text><text x="332" y="174" font-size="4" fill="rgb(72, 40, 120)">including</text><text x="277" y="19" font-size="4" fill="rgb(239, 229, 28)">Register</text><text x="214" y="18" font-size="4" fill="rgb(72, 28, 110)">corruption</text><text x="290" y="143" font-size="4" fill="rgb(58, 83, 139)">financial</text><text x="254" y="65" font-size="4" fill="rgb(31, 149, 139)">Semenova</text><text x="100" y="188" font-size="4" fill="rgb(72, 38, 119)">Rector</text><text x="275" y="94" font-size="4" fill="rgb(65, 66, 135)">NAU</text><text x="136" y="18" font-size="4" fill="rgb(134, 213, 73)">audit</text><text x="92" y="159" font-size="4" fill="rgb(69, 5, 89)">fostering</text><text x="365" y="50" font-size="4" fill="rgb(69, 53, 129)">bodies</text><text x="33" y="124" font-size="4" fill="rgb(124, 210, 80)">Lviv</text><text x="197" y="102" font-size="4" transform="rotate(-90, 197, 102) translate(-7, 0)" fill="rgb(34, 140, 141)">hub</text><text x="378" y="15" font-size="4" fill="rgb(110, 206, 88)">agricultural</text><text x="156" y="100" font-size="4" fill="rgb(231, 228, 25)">organization</text><text x="124" y="166" font-size="4" transform="rotate(-90, 124, 166) translate(-16, 0)" fill="rgb(54, 93, 141)">Ieva Ilves</text><text x="135" y="134" font-size="4" fill="rgb(31, 158, 137)">extensive experience</text><text x="311" y="95" font-size="4" fill="rgb(147, 215, 65)">actively involved</text><text x="7" y="128" font-size="4" transform="rotate(-90, 7, 128) translate(-33, 0)" fill="rgb(43, 116, 142)">Key Achievements</text></svg>