<svg xmlns="http://www.w3.org/2000/svg" viewBox="0 0 282.05 83.4" role="presentation">
  <title>McCourt School of Public Policy</title>
  <g>
    <path d="M2.3,2.83H12.7l5,24.5h.1l5-24.5H33.13V37.54H26.71V9.83h-.1L20.44,37.54H15L8.82,9.83h-.1V37.54H2.3V2.83Z" transform="translate(-2.3 -2.14)" style="fill: #041e42"/>
    <path d="M48.81,20.82c0-2.53-.49-5.25-3-5.25-3.31,0-3.84,2.92-3.84,9,0,6.47.63,9.14,3.6,9.14,2.29,0,3.26-1.85,3.26-6.13h6.42c0,6.85-2.82,10.7-10,10.7-6.71,0-10-3.26-10-13.76,0-10.75,4.38-13.76,10.6-13.76s9.38,3.89,9.38,10.11Z" transform="translate(-2.3 -2.14)" style="fill: #041E42"/>
    <path d="M72.91,14.54c0-5.06-1-7.24-4.18-7.24-3.5,0-4.38,3.5-4.38,13.37,0,10.5,1.46,12.4,4.47,12.4,2.48,0,4.38-1.26,4.38-8.8h7c0,7.54-1.85,14-11,14-10.5,0-11.81-7.49-11.81-18s1.31-18,11.81-18c10,0,10.74,7.34,10.74,12.4Z" transform="translate(-2.3 -2.14)" style="fill: #041E42"/>
    <path d="M92.67,10.7c8-.15,10.31,4.62,10.31,13.76,0,8.95-2.67,13.76-10.31,13.76-8,.15-10.31-4.62-10.31-13.76C82.36,15.52,85,10.7,92.67,10.7Zm0,23c2.72,0,3.6-2.63,3.6-9.19s-.87-9.19-3.6-9.19c-3.31,0-3.6,3.84-3.6,9.19S89.36,33.65,92.67,33.65Z" transform="translate(-2.3 -2.14)" style="fill: #041E42"/>
    <path d="M118.51,34.48h-.1a7.12,7.12,0,0,1-6.66,3.74c-4.23,0-6.66-2.24-6.66-7.44V11.38h6.71v18c0,2.67.87,3.65,2.87,3.65,2.38,0,3.55-1.46,3.55-4.33V11.38h6.71V37.54h-6.42V34.48Z" transform="translate(-2.3 -2.14)" style="fill: #041E42"/>
    <path d="M127.05,11.38h6.42v3.5h.1c1.36-2.53,3.26-4.18,6-4.18a10,10,0,0,1,1.22.1v6.42c-.73,0-1.36-.1-2.09-.1-2.33,0-5,1.22-5,4.72v15.7h-6.71V11.38Z" transform="translate(-2.3 -2.14)" style="fill: #041E42"/>
    <path d="M140.81,3.9h6.71v7.49h3.89V16h-3.89V30.11c0,2.09.44,2.87,2.38,2.87a13.66,13.66,0,0,0,1.51-.1v4.67a42,42,0,0,1-4.38.29c-5.25,0-6.22-1.65-6.22-6.9V3.9Z" transform="translate(-2.3 -2.14)" style="fill: #041E42"/>
    <path d="M169.9,26.7v1c0,3.26.92,5.35,4.62,5.35a4,4,0,0,0,4.18-4.28c0-3.11-1.56-4.38-6.22-5.93-6.22-2.09-9.09-4.76-9.09-10.5,0-6.81,4.08-10.21,10.75-10.21,6.22,0,10.74,2.67,10.74,9.33v1h-6.71c0-3.31-1.07-5.15-3.79-5.15-3.16,0-4,2-4,4s.63,3.5,3.6,4.71l5.4,2.33c5.25,2.33,6.61,4.91,6.61,9.19,0,7.34-4.47,10.65-12.06,10.65-7.92,0-11-3.7-11-10.11V26.7Z" transform="translate(-2.3 -2.14)" style="fill: #041E42"/>
    <path d="M201.68,20.82c0-2.53-.49-5.25-3-5.25-3.31,0-3.84,2.92-3.84,9,0,6.47.63,9.14,3.6,9.14,2.29,0,3.26-1.85,3.26-6.13h6.42c0,6.85-2.82,10.7-10,10.7-6.71,0-10-3.26-10-13.76,0-10.75,4.38-13.76,10.6-13.76s9.38,3.89,9.38,10.11Z" transform="translate(-2.3 -2.14)" style="fill: #041E42"/>
    <path d="M210.22,2.83h6.71V14.06h.1c1.31-2.29,3.5-3.36,6.37-3.36,4.23,0,6.66,2.24,6.66,7.44v19.4h-6.71v-18c0-2.67-.88-3.65-2.87-3.65-2.38,0-3.55,1.46-3.55,4.33V37.54h-6.71V2.83Z" transform="translate(-2.3 -2.14)" style="fill: #041E42"/>
    <path d="M242.48,10.64c8-.15,10.31,4.62,10.31,13.76,0,9-2.67,13.76-10.31,13.76-8,.15-10.31-4.62-10.31-13.76C232.17,15.45,234.85,10.64,242.48,10.64Zm0,23c2.72,0,3.6-2.63,3.6-9.19s-.87-9.19-3.6-9.19c-3.31,0-3.6,3.84-3.6,9.19S239.17,33.59,242.48,33.59Z" transform="translate(-2.3 -2.14)" style="fill: #041E42"/>
    <path d="M265.21,10.77c8-.15,10.31,4.62,10.31,13.76,0,8.95-2.67,13.76-10.31,13.76-8,.15-10.31-4.62-10.31-13.76C254.91,15.58,257.58,10.77,265.21,10.77Zm0,23c2.72,0,3.6-2.63,3.6-9.19s-.88-9.19-3.6-9.19c-3.31,0-3.6,3.84-3.6,9.19S261.91,33.72,265.21,33.72Z" transform="translate(-2.3 -2.14)" style="fill: #041E42"/>
    <path d="M277.64,2.83h6.71V37.54h-6.71Z" transform="translate(-2.3 -2.14)" style="fill: #041E42"/>
    <path d="M2.44,69.74a12.27,12.27,0,0,1,3.13-8.39A6.88,6.88,0,0,1,10.86,59a4.42,4.42,0,0,1,4.62,4.69,14.18,14.18,0,0,1-3.21,8.72A6.69,6.69,0,0,1,6.9,74.84C4.71,74.84,2.44,73.16,2.44,69.74Zm8.19-.38C12,67,13.16,63.92,13.16,62.58a1.58,1.58,0,0,0-1.6-1.68c-1.53,0-2.94,1.3-4.77,4.36a13,13,0,0,0-2,5.81,1.67,1.67,0,0,0,1.57,1.75C7.84,72.83,9.18,71.79,10.63,69.36Z" transform="translate(-2.3 -2.14)" style="fill: #041E42"/>
    <path d="M29.08,59.79c.22,0,.3.15.22.37l-.19,1c0,.22-.11.3-.41.3H25c-.82,2.91-2.46,9.32-4,13.64-2.05,5.63-5,10.47-9.39,10.47-1.94,0-3.13-1-3.13-2.31a1.7,1.7,0,0,1,1.71-1.79A1.9,1.9,0,0,1,12,83.38a.68.68,0,0,0,.75.6c1.71,0,3.5-3.13,5.29-10l3.35-12.6h-3.2c-.22,0-.3-.15-.26-.37l.19-.89c.07-.22.15-.37.45-.37H21.7c1.12-2.95,1.71-5.48,4.25-8.24A8.29,8.29,0,0,1,31.61,49c2.76,0,4,1.34,4,2.46a1.75,1.75,0,0,1-1.71,1.79,1.78,1.78,0,0,1-2-1.71,1.29,1.29,0,0,0-1.34-1.08c-2.91,0-4.1,5.4-5.22,9.39h3.8Z" transform="translate(-2.3 -2.14)" style="fill: #041E42"/>
    <path d="M43.14,70.44c-.37,1.42-.22,2.65,1.19,2.65h1.42c.3,0,.34.15.3.37l-.07.78c0,.26-.15.34-.45.34-.45,0-2-.11-5.29-.11-3.06,0-4.4.11-4.92.11-.22,0-.3-.15-.3-.37l.07-.75c.07-.22.15-.37.45-.37h.67c1.79,0,2.39-1.34,2.8-2.87l4.43-16.77c.34-1.23.45-2.57-1-2.57H40.76c-.22,0-.22-.15-.22-.37l.22-.78c.08-.22.15-.22.52-.22s7-.11,8.27-.11c4,0,5.81.26,7.6,1.75s2.24,2.53,2.24,5.07c0,4-3.21,8.12-10.81,8.12a14.12,14.12,0,0,1-3.73-.45Zm2.09-8a6.31,6.31,0,0,0,2.91.6c4.7,0,6.86-3.88,6.86-7.16,0-4.4-3.58-5.25-5.29-5.25a8.1,8.1,0,0,0-1.34.07Z" transform="translate(-2.3 -2.14)" style="fill: #041E42"/>
    <path d="M72.36,59.56c.08-.22.3-.22.52-.22h2.53c.37,0,.45.15.37.45l-2.61,7.6a40.51,40.51,0,0,0-1.49,4.7c0,.37.15.45.37.45.52,0,1.94-1.42,2.46-2.09.07-.15.22-.15.37,0l.45.34a.34.34,0,0,1,0,.37c-.37.6-3.06,3.73-6.19,3.73A1.08,1.08,0,0,1,68,73.73c0-.52,1.64-4.77,2-5.85l-.26-.15c-1.49,2.12-5.07,7.12-8.72,7.12a1.91,1.91,0,0,1-1.71-1.71c0-1.41.9-3.35,2.42-6.75a18.15,18.15,0,0,0,1.6-4.58.61.61,0,0,0-.67-.6c-.6,0-2,1.27-2.68,2a.24.24,0,0,1-.41,0l-.41-.37c-.07-.07-.07-.15,0-.3.6-.67,3-3.58,6.19-3.58a1.53,1.53,0,0,1,1.57,1.56c0,.9-.71,2.87-2.12,6.22a22.12,22.12,0,0,0-1.75,5,.59.59,0,0,0,.6.6c1.27,0,4.92-4.4,5.89-6a14.45,14.45,0,0,0,1.71-3.43Z" transform="translate(-2.3 -2.14)" style="fill: #041E42"/>
    <path d="M88.91,49.31c.37,0,.45.3.3.63l-6,13.49.3.07c1.71-2.39,4.1-4.55,6.78-4.55A2.81,2.81,0,0,1,93,62c0,1.9-1,5.55-4.47,9.13A10.92,10.92,0,0,1,80,74.83c-1.71,0-3-1-3-2.61A7.7,7.7,0,0,1,77.51,70c2.46-6.19,4.92-12.15,7.23-17.85a2.73,2.73,0,0,0,.22-.89c0-.37-.37-.6-.89-.6H83c-.22,0-.37-.08-.3-.3l.22-.75c.07-.22.15-.3.37-.3h5.67ZM83,65.82a16.53,16.53,0,0,0-2.53,6.26c0,.89.45,1.27,1.34,1.27,1,0,2.53-1,3.84-2.35a12.72,12.72,0,0,0,3.69-8.12c0-1.08-.52-1.68-1.12-1.68C87.12,61.2,84.89,63.06,83,65.82Z" transform="translate(-2.3 -2.14)" style="fill: #041E42"/>
    <path d="M100.47,52.93c.49-1.3.45-2.27-.67-2.27H98.61c-.15,0-.19-.11-.15-.3l.22-.86a.27.27,0,0,1,.3-.19h5.74c.34,0,.41.22.3.56L97.49,70.22c-.37,1-.75,2.23,0,2.23s2.24-1.41,2.68-1.94c.15-.07.22-.07.37.07L101,71c.07.15.15.22,0,.45s-3.35,3.43-6.63,3.43a1.33,1.33,0,0,1-1.27-1.34,23.47,23.47,0,0,1,1.19-3.73Z" transform="translate(-2.3 -2.14)" style="fill: #041E42"/>
    <path d="M108.37,69.7a8.28,8.28,0,0,0-.67,2.39c0,.3.15.52.45.52.75-.07,2.68-2.09,2.91-2.39.07-.15.22-.15.34,0l.41.41c.15.15.22.22.07.37-.22.3-2.83,3.87-6.89,3.87a1,1,0,0,1-1.08-1c0-.75.6-2.5,2.09-6.63l1-2.91a7.78,7.78,0,0,0,.6-2.16.4.4,0,0,0-.45-.45c-.6,0-2.31,1.94-2.83,2.53a.28.28,0,0,1-.45,0l-.37-.34c-.15-.11-.22-.19-.15-.34s3.58-4.55,6.86-4.55c.89,0,1.34.45,1.34,1.19A16,16,0,0,1,110.47,64ZM109,52.44a2.12,2.12,0,0,1,2.09-2,2,2,0,0,1,2.27,1.86,2.32,2.32,0,0,1-2.2,2.16A2,2,0,0,1,109,52.44Z" transform="translate(-2.3 -2.14)" style="fill: #041E42"/>
    <path d="M122.94,71.26c.15.07.22.15.07.37-.56.82-3,3.2-5.74,3.2a3.44,3.44,0,0,1-3.35-3.69C113.92,65.92,118,59,122.6,59A2.33,2.33,0,0,1,125.17,61a1.81,1.81,0,0,1-1.57,1.86,1.19,1.19,0,0,1-1.27-.89c-.22-.52-.56-1.12-1.16-1.12-.82,0-1.53.89-2.24,2.53A17.65,17.65,0,0,0,117.48,70c0,1.86.56,2.68,1.53,2.68A5.14,5.14,0,0,0,122.1,71c.07-.15.22-.22.3-.15Z" transform="translate(-2.3 -2.14)" style="fill: #041E42"/>
    <path d="M140.05,70.44c-.37,1.42-.22,2.65,1.19,2.65h1.42c.3,0,.34.15.3.37l-.08.78c0,.26-.15.34-.45.34-.45,0-2-.11-5.29-.11-3.06,0-4.4.11-4.92.11-.22,0-.3-.15-.3-.37l.07-.75c.07-.22.15-.37.45-.37h.67c1.79,0,2.39-1.34,2.8-2.87l4.43-16.77c.34-1.23.45-2.57-1-2.57h-1.71c-.22,0-.22-.15-.22-.37l.22-.78c.08-.22.15-.22.52-.22s7-.11,8.27-.11c4,0,5.81.26,7.6,1.75,1.64,1.34,2.24,2.53,2.24,5.07,0,4-3.21,8.12-10.81,8.12a14.12,14.12,0,0,1-3.73-.45Zm2.09-8a6.31,6.31,0,0,0,2.91.6c4.7,0,6.86-3.88,6.86-7.16,0-4.4-3.58-5.25-5.29-5.25a8.1,8.1,0,0,0-1.34.07Z" transform="translate(-2.3 -2.14)" style="fill: #041E42"/>
    <path d="M154.82,69.74A12.27,12.27,0,0,1,158,61.35,6.88,6.88,0,0,1,163.24,59a4.42,4.42,0,0,1,4.62,4.69,14.18,14.18,0,0,1-3.21,8.72,6.69,6.69,0,0,1-5.37,2.46C157.09,74.84,154.82,73.16,154.82,69.74Zm8.2-.38c1.38-2.35,2.53-5.44,2.53-6.78A1.58,1.58,0,0,0,164,60.9c-1.53,0-2.94,1.3-4.77,4.36a13,13,0,0,0-2,5.81,1.67,1.67,0,0,0,1.57,1.75C160.22,72.83,161.56,71.79,163,69.36Z" transform="translate(-2.3 -2.14)" style="fill: #041E42"/>
    <path d="M176.4,52.93c.49-1.3.45-2.27-.67-2.27h-1.19c-.15,0-.19-.11-.15-.3l.22-.86a.27.27,0,0,1,.3-.19h5.74c.34,0,.41.22.3.56l-7.53,20.35c-.37,1-.75,2.23,0,2.23s2.24-1.41,2.68-1.94c.15-.07.22-.07.37.07l.45.37c.07.15.15.22,0,.45s-3.35,3.43-6.63,3.43A1.33,1.33,0,0,1,169,73.49a23.47,23.47,0,0,1,1.19-3.73Z" transform="translate(-2.3 -2.14)" style="fill: #041E42"/>
    <path d="M184.3,69.7a8.28,8.28,0,0,0-.67,2.39c0,.3.15.52.45.52.75-.07,2.68-2.09,2.91-2.39.07-.15.22-.15.34,0l.41.41c.15.15.22.22.07.37-.22.3-2.83,3.87-6.89,3.87a1,1,0,0,1-1.08-1c0-.75.6-2.5,2.09-6.63l1-2.91a7.78,7.78,0,0,0,.6-2.16.4.4,0,0,0-.45-.45c-.6,0-2.31,1.94-2.83,2.53a.28.28,0,0,1-.45,0l-.37-.34c-.15-.11-.22-.19-.15-.34.22-.22,3.58-4.55,6.86-4.55.89,0,1.34.45,1.34,1.19A16,16,0,0,1,186.4,64Zm.64-17.26a2.12,2.12,0,0,1,2.09-2,2,2,0,0,1,2.27,1.86,2.32,2.32,0,0,1-2.2,2.16A2,2,0,0,1,184.94,52.44Z" transform="translate(-2.3 -2.14)" style="fill: #041E42"/>
    <path d="M198.87,71.26c.15.07.22.15.07.37-.56.82-3,3.2-5.74,3.2a3.44,3.44,0,0,1-3.35-3.69c0-5.22,4.06-12.19,8.68-12.19A2.33,2.33,0,0,1,201.1,61a1.81,1.81,0,0,1-1.57,1.86,1.19,1.19,0,0,1-1.27-.89c-.22-.52-.56-1.12-1.16-1.12-.82,0-1.53.89-2.24,2.53A17.65,17.65,0,0,0,193.41,70c0,1.86.56,2.68,1.53,2.68A5.14,5.14,0,0,0,198,71c.07-.15.22-.22.3-.15Z" transform="translate(-2.3 -2.14)" style="fill: #041E42"/>
    <path d="M209.35,73.57a45.89,45.89,0,0,0,3.35-7.45,9.69,9.69,0,0,0,.45-2.38,5.47,5.47,0,0,0-.3-1.72,4.87,4.87,0,0,1-.37-1.49A1.65,1.65,0,0,1,214.34,59c1.42,0,1.86,1,1.86,2.38,0,1.64-1.34,4.92-2.61,7.45-1.86,3.65-5.81,10.21-9.06,13.34-1.08,1-3.32,3.39-5.63,3.39-1.64,0-2.39-.89-2.39-1.94a2,2,0,0,1,1.71-1.94,1.69,1.69,0,0,1,1.34.67,1.74,1.74,0,0,0,1,.52,3.18,3.18,0,0,0,1.68-.63A16.32,16.32,0,0,0,206,78a3.76,3.76,0,0,0,.37-2.53c-.07-1.19-.93-11.11-1.38-12.75-.19-.67-.26-1-.71-1-.67,0-1.64,1.86-1.94,2.68-.07.22-.15.22-.34.19l-.56-.19c-.15,0-.15-.15-.07-.45s1.71-5,5-5c1.34,0,2.09,1,2.31,4.1.3,4.25.45,8.65.48,10.51h.23Z" transform="translate(-2.3 -2.14)" style="fill: #041E42"/>
  </g>
</svg>